<?xml version="1.0" encoding="utf-8"?>
<!-- Generator: Adobe Illustrator 27.3.1, SVG Export Plug-In . SVG Version: 6.00 Build 0)  -->
<svg version="1.1" id="Layer_1" xmlns="http://www.w3.org/2000/svg" xmlns:xlink="http://www.w3.org/1999/xlink" x="0px" y="0px"
	 viewBox="0 0 1000 1000" style="enable-background:new 0 0 1000 1000;" xml:space="preserve">
<style type="text/css">
	.st0{fill:#002136;}
	.st1{fill:#EF8626;}
</style>
<g>
	<g>
		<path class="st0" d="M732.9,483.6c0-26.6-4.4-52.7-13.2-77.5c-3.3-9.4-13.7-14.4-23.1-11c-9.4,3.3-14.4,13.6-11,23.1
			c7.4,21,11.2,43,11.2,65.5c0,108.5-88.3,196.8-196.8,196.8c-108.5,0-196.8-88.3-196.8-196.8c0-108.5,88.3-196.8,196.8-196.8
			c21.5,0,42.6,3.4,62.7,10.2c9.5,3.2,19.7-1.9,22.9-11.4c3.2-9.5-1.9-19.7-11.4-22.9c-23.9-8-48.9-12.1-74.3-12.1
			c-62.2,0-120.7,24.2-164.7,68.2c-44,44-68.2,102.5-68.2,164.7s24.2,120.7,68.2,164.7c15.3,15.3,32.4,28.3,50.8,38.6l-35.2,62.4
			h41.5l26.6-47.2c25.6,9.5,52.9,14.4,81,14.4c27.6,0,54.4-4.8,79.6-13.9l26.3,46.7h41.5l-34.8-61.7c18.9-10.5,36.4-23.6,52.1-39.3
			C708.7,604.3,732.9,545.8,732.9,483.6z"/>
		<path class="st0" d="M549.8,347.6c2.2-9.7-3.9-19.4-13.6-21.7c-12.5-2.9-25.4-4.2-38.4-4.1c-89.2,1.2-160.7,74.7-159.5,163.9
			c1.2,89.2,74.7,160.7,163.9,159.5s160.7-74.7,159.5-163.9c-0.2-12.2-1.7-24.3-4.5-36.1c-2.4-9.7-12.1-15.7-21.8-13.3
			c-9.7,2.4-15.7,12.1-13.3,21.8c2.2,9.1,3.4,18.5,3.5,28c0.9,69.2-54.6,126.3-123.9,127.2s-126.3-54.6-127.2-123.9
			S429.1,359,498.3,358.1c10.1-0.1,20.1,0.9,29.8,3.1C537.9,363.5,547.6,357.4,549.8,347.6z"/>
		<path class="st0" d="M488.1,440.3c9.6-2.6,15.3-12.6,12.7-22.2c-2.6-9.6-12.6-15.3-22.2-12.7c-16.6,4.5-31,14.1-41.8,27.5
			c-11,13.7-17.2,30.3-17.8,48c-1.5,44.7,33.6,82.3,78.3,83.9c38.4,1.3,72.7-24.8,81.7-62c2.3-9.7-3.6-19.5-13.3-21.8
			c-9.7-2.3-19.5,3.6-21.8,13.3c-5,20.6-24,35.1-45.3,34.4c-24.8-0.9-44.3-21.7-43.4-46.5C455.8,462.3,469.1,445.5,488.1,440.3z"/>
	</g>
	<path class="st1" d="M714.1,332.8c-2.7-6.6-9.3-11.1-16.5-11.1l-35.9,0V286c0-7.2-4.3-13.8-11.1-16.5c-6.8-2.9-14.3-1.3-19.6,3.9
		l-35.9,35.9c-3.4,3.4-5.2,7.9-5.2,12.7v45.7L493.8,464c-0.3,0.3-0.6,0.6-0.9,1l-6.1,6.1c-7.1,7.1-7.1,18.5,0,25.6l0,0
		c7.1,7.1,18.5,7.1,25.6,0l16.4-16.4c0.8-0.5,1.5-1.1,2.2-1.8l85-85h45.7c4.8,0,9.3-2,12.7-5.2l35.9-35.9
		C715.4,347.2,716.8,339.4,714.1,332.8z"/>
</g>
</svg>
