<?xml version="1.0" encoding="utf-8"?>
<!-- Generator: Adobe Illustrator 27.3.1, SVG Export Plug-In . SVG Version: 6.00 Build 0)  -->
<svg version="1.1" id="Layer_1" xmlns="http://www.w3.org/2000/svg" xmlns:xlink="http://www.w3.org/1999/xlink" x="0px" y="0px"
	 viewBox="0 0 1000 1000" style="enable-background:new 0 0 1000 1000;" xml:space="preserve">
<style type="text/css">
	.st0{fill:#002136;}
	.st1{fill:#F5F5F5;}
	.st2{fill:#EF8626;}
</style>
<g>
	<rect x="0.2" y="0.2" class="st0" width="1000" height="1000"/>
	<g>
		<path class="st1" d="M672.1,376.2c0-19.6-3.3-38.9-9.8-57.2c-2.5-7-10.1-10.6-17-8.1c-7,2.5-10.6,10.1-8.1,17
			c5.5,15.5,8.2,31.8,8.2,48.4c0,80.1-65.2,145.3-145.3,145.3c-80.1,0-145.3-65.2-145.3-145.3c0-80.1,65.2-145.3,145.3-145.3
			c15.9,0,31.4,2.5,46.3,7.5c7,2.3,14.6-1.4,16.9-8.4c2.3-7-1.4-14.6-8.4-16.9c-17.6-5.9-36.1-8.9-54.8-8.9
			c-45.9,0-89.1,17.9-121.6,50.4c-32.5,32.5-50.4,75.7-50.4,121.6s17.9,89.1,50.4,121.6c11.3,11.3,23.9,20.9,37.5,28.5l-26,46.1
			h30.6l19.6-34.8c18.9,7,39,10.6,59.8,10.6c20.4,0,40.2-3.5,58.8-10.3l19.4,34.4H609l-25.7-45.5c13.9-7.7,26.9-17.4,38.5-29
			C654.3,465.3,672.1,422.1,672.1,376.2z"/>
		<path class="st1" d="M536.9,275.8c1.6-7.2-2.8-14.3-10-16c-9.2-2.1-18.8-3.1-28.3-3c-65.8,0.9-118.7,55.2-117.8,121
			s55.2,118.7,121,117.8c65.8-0.9,118.7-55.2,117.8-121c-0.1-9-1.2-17.9-3.3-26.6c-1.7-7.2-8.9-11.6-16.1-9.8
			c-7.2,1.7-11.6,9-9.8,16.1c1.6,6.7,2.5,13.7,2.6,20.7c0.7,51.1-40.3,93.2-91.4,93.9s-93.2-40.3-93.9-91.4s40.3-93.2,91.4-93.9
			c7.4-0.1,14.8,0.7,22,2.3C528.1,287.5,535.3,283,536.9,275.8z"/>
		<path class="st1" d="M491.4,344.2c7.1-1.9,11.3-9.3,9.3-16.4c-1.9-7.1-9.3-11.3-16.4-9.3c-12.2,3.4-22.9,10.4-30.9,20.3
			c-8.1,10.1-12.7,22.4-13.1,35.4c-1.1,33,24.8,60.8,57.8,61.9c28.3,1,53.7-18.3,60.3-45.8c1.7-7.2-2.7-14.4-9.9-16.1
			c-7.2-1.7-14.4,2.7-16.1,9.9c-3.7,15.2-17.7,25.9-33.4,25.4c-18.3-0.6-32.7-16-32-34.3C467.5,360.4,477.3,348,491.4,344.2z"/>
	</g>
	<path class="st2" d="M658.3,264.8c-2-4.9-6.9-8.2-12.2-8.2l-26.5,0v-26.4c0-5.3-3.2-10.2-8.2-12.2c-5-2.1-10.6-0.9-14.4,2.9
		l-26.5,26.5c-2.5,2.5-3.8,5.8-3.8,9.4v33.8l-71,71c-0.2,0.2-0.4,0.5-0.7,0.7l-4.5,4.5c-5.2,5.2-5.2,13.7,0,18.9l0,0
		c5.2,5.2,13.7,5.2,18.9,0l12.1-12.1c0.6-0.4,1.1-0.8,1.6-1.3l62.7-62.7h33.7c3.6,0,6.9-1.5,9.4-3.8l26.5-26.5
		C659.2,275.4,660.3,269.7,658.3,264.8z"/>
	<g>
		<g>
			<path class="st1" d="M240.2,689.9c-5.2,0-9.3-1.8-12.3-5.3c-2.7-3.1-4-7.1-4-11.9v-9.4l11.6-6.1v14.8c0,2.5,0.5,4.2,1.5,5.2
				s2.7,1.5,5,1.5h30.2c2.3,0,4-0.5,5-1.6c1-1,1.5-2.8,1.5-5.2v-17l11.7-6.1v23.9c0,5.6-1.8,10-5.3,13.1c-3.1,2.7-7,4.1-11.8,4.1
				H240.2z M256,710.5c-1.9,0-3.3-0.6-4.4-1.7s-1.7-2.6-1.7-4.5c0-1.8,0.6-3.2,1.7-4.3c1.1-1.1,2.6-1.7,4.4-1.7
				c1.8,0,3.3,0.5,4.4,1.6c1.1,1.1,1.6,2.5,1.6,4.4C262,708.4,260,710.5,256,710.5z"/>
			<path class="st1" d="M307,689.9v-53.5l11.7-6.2v59.7H307z"/>
			<path class="st1" d="M379.2,678.7v11.2h-11.4c-0.4,5.5-2.9,10-7.4,13.3c-3.7,2.7-8,4.1-13,4.1c-3.9,0-7.7-1-11.4-3.1V694
				c3.3,1.9,6.7,2.9,10,2.9c2.6,0,4.9-0.7,6.9-2.1c2-1.4,3.1-3.1,3.3-5.1c-0.5-0.1-1.3-0.1-2.3-0.2c-1-0.1-1.9-0.2-2.4-0.3
				c-6.4-0.7-11.3-3.2-14.7-7.5c-2.9-3.6-4.3-8-4.3-13.2c0-6.8,1.9-12.1,5.6-16.1c3.3-3.5,7.6-5.2,13-5.2c5.5,0,9.8,1.8,12.9,5.3
				c2.7,3,4,7,4,11.8v14.3H379.2z M356.3,664.2c0-4.1-1.8-6.1-5.3-6.1c-4.7,0-7,3.4-7,10.1c0,6,2.7,9.3,8.1,10
				c0.9,0.2,2.3,0.3,4.2,0.5V664.2z"/>
			<path class="st1" d="M469,678.7h8.3v11.2h-9.4c-4.5,0-8.2-1.2-11.2-3.6c-3,2.4-6.7,3.6-11.2,3.6h-40c-4.5,0-8.2-1.2-11.2-3.6
				c-3,2.4-6.7,3.6-11.2,3.6h-9.4v-11.2h8.3c2.3,0,4-0.5,5-1.5c1-1,1.5-2.7,1.5-5.1v-12.2l11.7-6.1V672c0,3.9,1.6,6.1,4.7,6.6
				c3-9,7.3-16.3,13-21.9c6.3-6.3,13.5-9.4,21.6-9.4c7.3,0,13.1,2.5,17.5,7.6c3.7,4.3,5.6,9.5,5.6,15.8v1.9
				C462.5,676.7,464.6,678.7,469,678.7z M445,678.7c2.2,0,3.7-0.5,4.6-1.4c0.8-1,1.2-2.7,1.2-5.3v-1.3c0-3.7-1-6.7-3.1-9.1
				c-2.1-2.3-4.8-3.5-8.1-3.5c-4.8,0-9.3,1.8-13.5,5.5c-4.2,3.7-7.4,8.7-9.9,15.1H445z"/>
			<path class="st1" d="M471.7,689.9v-11.2h5.8c2.8,0,4.9-0.6,6.1-1.9c1.2-1.2,1.8-3.3,1.8-6.3v-34.1l11.6-6.2v40.4
				c0,6-1.8,10.8-5.5,14.3c-3.3,3.3-7.8,4.9-13.3,4.9H471.7z"/>
			<path class="st1" d="M513.6,689.9v-53.5l11.7-6.2v59.7H513.6z"/>
			<path class="st1" d="M600.5,678.7h8.3v11.2h-9.4c-5.7,0-10.2-1.9-13.3-5.7c-2.7,2-5.9,3.1-9.7,3.1c-5.7,0-10.2-2.1-13.6-6.4
				c-2.8-3.5-4.2-7.7-4.2-12.7c0-6.1,2-11.1,5.9-14.9c3.3-3.2,7.2-4.8,11.6-4.8c2.3,0,4.4,0.4,6.3,1.3v-2.4l11.6-6.1V672
				c0,2.4,0.5,4.1,1.5,5.1C596.5,678.2,598.1,678.7,600.5,678.7z M570.6,637.6c-1.9,0-3.3-0.6-4.4-1.7s-1.7-2.6-1.7-4.5
				c0-4,2-6,6.1-6c1.8,0,3.3,0.5,4.4,1.6c1.1,1.1,1.6,2.5,1.6,4.4C576.6,635.6,574.6,637.6,570.6,637.6z M582.4,661.4
				c-1.6-1.4-3.4-2-5.5-2s-3.7,0.8-4.9,2.5c-1.3,1.7-1.9,3.9-1.9,6.6c0,2.7,0.6,4.9,1.9,6.5c1.2,1.6,2.9,2.4,5.1,2.4
				c2.3,0,4.2-0.8,5.5-2.4c-0.1-0.5-0.1-1.3-0.1-2.3V661.4z M584.9,637.6c-1.9,0-3.3-0.6-4.4-1.7s-1.7-2.6-1.7-4.5c0-4,2-6,6.1-6
				c1.8,0,3.3,0.5,4.4,1.6c1.1,1.1,1.6,2.5,1.6,4.4C590.9,635.6,588.9,637.6,584.9,637.6z"/>
			<path class="st1" d="M625,649.1c4.6,0.4,8.7,1.8,12.2,4.2c6.3,4.3,9.4,10.4,9.4,18.4v1.2c0,5.5-1.7,9.9-5.2,13
				c-3,2.7-6.9,4-11.7,4h-26.5v-11.2h25.3c4.3,0,6.5-2.1,6.5-6.4v-0.6c0-3.3-1.3-6-3.8-8.1c-2.6-2.1-5.9-3.1-10-3.1
				c-3.1,0-6.4,0.6-9.8,1.9v-11.2l18.8-20.9h11.7L625,649.1z"/>
			<path class="st1" d="M683.7,678.7h8.3v11.2h-9.4c-2.1,0-4-0.3-5.8-0.8c-0.8,5.9-3.2,10.6-7.1,14.1c-3.6,3.1-7.9,4.6-12.9,4.6
				c-3.9,0-7.7-1-11.4-3v-10.2c3.2,1.8,6.4,2.7,9.4,2.7c3.4,0,6-1.1,7.9-3.3c1.9-2.2,2.8-5.2,2.8-9.1v-30l7.6-4l4-2.1v0.1l0.1-0.1
				V672c0,2.4,0.5,4.1,1.5,5.1C679.7,678.2,681.4,678.7,683.7,678.7z"/>
			<path class="st1" d="M686.5,689.9v-11.2h9.8c2.3,0,4-0.5,5-1.5s1.5-2.7,1.5-5.1v-12.2l11.7-6.1V672c0,2.4,0.5,4.1,1.5,5.1
				c1,1,2.7,1.5,5,1.5h6.3c2.3,0,4-0.5,5-1.5c1-1,1.5-2.7,1.5-5.1v-14.6l11.7-6.2V672c0,2.4,0.5,4.1,1.5,5.1s2.7,1.5,5,1.5h6.3
				c2.3,0,4-0.5,5-1.5c1-1,1.5-2.7,1.5-5.1v-17.1l11.7-6.1v23.8c0,5.5-1.7,9.8-5,13c-2.9,2.8-6.7,4.2-11.5,4.3h-9.2
				c-4.6,0-8.3-1.4-11.2-4.1c-2.7,2.7-6.2,4-10.5,4.1h-9.2c-4.6,0-8.3-1.4-11.2-4.1c-2.9,2.7-6.6,4.1-11.2,4.1H686.5z M732,640.7
				c-1.9,0-3.3-0.6-4.4-1.7c-1.1-1.1-1.7-2.6-1.7-4.5c0-1.8,0.6-3.2,1.7-4.3c1.1-1.1,2.6-1.7,4.4-1.7c1.8,0,3.3,0.5,4.4,1.6
				c1.1,1.1,1.6,2.5,1.6,4.4C738,638.6,736,640.7,732,640.7z M739.1,627.1c-3.7,0-5.6-1.9-5.6-5.6c0-3.6,1.9-5.5,5.6-5.5
				c3.6,0,5.5,1.8,5.5,5.5C744.5,625.2,742.7,627.1,739.1,627.1z M746.3,640.7c-1.9,0-3.3-0.6-4.4-1.7c-1.1-1.1-1.7-2.6-1.7-4.5
				c0-1.8,0.6-3.2,1.7-4.3c1.1-1.1,2.6-1.7,4.4-1.7c1.8,0,3.3,0.5,4.4,1.6c1.1,1.1,1.6,2.5,1.6,4.4
				C752.3,638.6,750.3,640.7,746.3,640.7z"/>
		</g>
		<g>
			<path class="st1" d="M237.8,773.2c-3.3,0-5.8-1.1-7.6-3.3c-1.6-1.9-2.4-4.3-2.4-7.3c0-3.2,0.9-6,2.7-8.3c1.8-2.4,4.3-4.1,7.6-5.2
				c3.5,1.2,6.1,3.1,7.9,5.6c1.6,2.3,2.4,4.9,2.4,7.9c0,3.4-1,6.1-3,8c-1.8,1.7-4.1,2.5-6.9,2.5H237.8z M234.3,742.8
				c-1.8,0-2.6-0.9-2.6-2.7c0-1.8,0.9-2.6,2.6-2.6c1.7,0,2.6,0.9,2.6,2.6C236.9,741.9,236.1,742.8,234.3,742.8z M237.7,768.8h0.8
				c1.6,0,2.9-0.6,3.8-1.7c1-1.1,1.4-2.6,1.4-4.5c0-4.3-1.9-7.4-5.7-9.3c-3.8,1.9-5.7,4.9-5.7,9.2c0,1.9,0.5,3.4,1.4,4.5
				C234.8,768.3,236.1,768.8,237.7,768.8z M241.2,742.8c-1.8,0-2.6-0.9-2.6-2.7c0-1.8,0.9-2.6,2.6-2.6c1.7,0,2.6,0.9,2.6,2.6
				C243.8,741.9,243,742.8,241.2,742.8z"/>
			<path class="st1" d="M270,768.8h3.6v4.4h-4.1c-1.8,0-3.4-0.4-4.7-1.1c-0.3,3.6-1.6,6.4-3.7,8.5c-2,1.9-4.5,2.9-7.4,2.9
				c-2.2,0-4.3-0.5-6.3-1.6v-4c1.8,1,3.7,1.5,5.5,1.5c2.3,0,4.1-0.8,5.4-2.3c1.3-1.5,1.9-3.7,1.9-6.4v-18.4l4.6-2.5v0.1l0.1-0.1
				v14.7C265.1,767.4,266.8,768.8,270,768.8z"/>
			<path class="st1" d="M270.3,773.2v-4.4h3.6c3.5,0,5.3-1.8,5.3-5.4v-11.1l4.6-2.5v13.8c0,3.1-0.9,5.5-2.7,7.2
				c-1.7,1.6-3.9,2.4-6.6,2.4H270.3z M273.2,783.9c-1.8,0-2.6-0.9-2.6-2.7c0-1.8,0.9-2.6,2.6-2.6c1.7,0,2.6,0.9,2.6,2.6
				C275.8,783,274.9,783.9,273.2,783.9z M280,783.9c-1.8,0-2.6-0.9-2.6-2.7c0-1.8,0.9-2.6,2.6-2.6c1.7,0,2.6,0.9,2.6,2.6
				C282.6,783,281.7,783.9,280,783.9z"/>
			<path class="st1" d="M302.8,773.2c-3.1,0-5.5-1-7.2-3c-1.4-1.7-2.2-3.9-2.2-6.6V741l4.6-2.5v25c0,3.6,1.8,5.4,5.3,5.4h3.6v4.4
				H302.8z"/>
			<path class="st1" d="M330.3,768.8h14.2v4.4h-14.6c-1.9,0-3.9-0.4-5.8-1.1c-1.9,0.8-3.8,1.1-5.8,1.1h-14.6v-4.4h14.2h0.8
				c-2.6-2.1-5.2-5.2-8-9.3v-2.4c1.7-2.5,3.8-4.4,6.2-5.9c2.4-1.4,4.8-2.2,7.2-2.2c2.4,0,4.8,0.7,7.2,2.2c2.4,1.5,4.5,3.4,6.2,6v2.3
				c-2.7,4.1-5.4,7.2-8,9.3H330.3z M315,758.4c3.3,4.5,6.3,7.5,9.1,8.9c2.8-1.5,5.8-4.5,9.1-9c-2.7-3.3-5.7-4.9-9.2-5
				C320.6,753.4,317.6,755.1,315,758.4z"/>
			<path class="st1" d="M376,768.8h3.6v4.4h-4.1c-3,0-5.3-1-7.1-2.9c-1.8,2.6-4.5,3.9-8,3.9c-3.5,0-6.2-1.3-8-3.9
				c-1.7,1.9-4,2.8-7.1,2.8h-4.1v-4.4h3.6c3.5,0,5.3-1.8,5.3-5.4v-1.8c0-4.2,1-7.4,3.1-9.6c1.8-2,4.2-3,7.2-3c3.4,0,6.1,1.3,8,3.8
				c1.6,2.2,2.4,5.1,2.4,8.7v1.8C370.7,767.1,372.5,768.8,376,768.8z M360.4,769.9c1.8,0,3.2-0.7,4.2-2.2c1-1.5,1.5-3.5,1.5-6.1
				c0-5.5-1.9-8.2-5.7-8.2c-3.8,0-5.7,2.7-5.7,8.2C354.7,767.2,356.6,769.9,360.4,769.9z"/>
			<path class="st1" d="M376.3,773.2v-4.4h2.9c3.7,0,5.6-2,5.6-5.9v-22l4.7-2.5V763c0,3.2-1,5.7-2.9,7.6c-1.8,1.7-4.1,2.6-7.1,2.6
				H376.3z"/>
			<path class="st1" d="M399.2,773.2V741l4.6-2.5v34.7H399.2z"/>
			<path class="st1" d="M426.7,771.5c-1.4,0.5-3,0.8-5,0.8c-3.2,0-5.7-1.2-7.5-3.6c-1.5-2-2.3-4.6-2.3-7.7c0-3.8,1-6.8,3.1-8.9
				c1.8-1.9,4.2-2.9,7.2-2.9c3.1,0,5.4,1,7.1,2.9c1.5,1.7,2.2,3.9,2.2,6.6v11.7c0,4.1-1.1,7.3-3.2,9.6c-2,2.2-4.7,3.3-8,3.3
				c-2.2,0-4.3-0.5-6.3-1.6v-4.1c1.9,1,3.8,1.5,5.7,1.5c2.1,0,3.8-0.7,5.1-2C425.9,775.8,426.6,773.9,426.7,771.5z M426.7,758.8
				c0-3.6-1.5-5.4-4.6-5.4c-1.8,0-3.2,0.7-4.2,2c-1,1.3-1.5,3.1-1.5,5.4c0,2.3,0.5,4.1,1.5,5.4c1,1.3,2.3,2,4,2c2.4,0,4-0.7,4.8-2
				V758.8z"/>
			<path class="st1" d="M462.2,773.2c-3.3,0-5.8-1.1-7.6-3.3c-1.6-1.9-2.4-4.3-2.4-7.3c0-3.2,0.9-6,2.7-8.3c1.8-2.4,4.3-4.1,7.6-5.2
				c3.5,1.2,6.1,3.1,7.9,5.6c1.6,2.3,2.4,4.9,2.4,7.9c0,3.4-1,6.1-3,8c-1.8,1.7-4.1,2.5-6.9,2.5H462.2z M458.7,742.8
				c-1.8,0-2.6-0.9-2.6-2.7c0-1.8,0.9-2.6,2.6-2.6c1.7,0,2.6,0.9,2.6,2.6C461.3,741.9,460.4,742.8,458.7,742.8z M462.1,768.8h0.8
				c1.6,0,2.9-0.6,3.8-1.7c1-1.1,1.4-2.6,1.4-4.5c0-4.3-1.9-7.4-5.7-9.3c-3.8,1.9-5.7,4.9-5.7,9.2c0,1.9,0.5,3.4,1.4,4.5
				C459.2,768.3,460.4,768.8,462.1,768.8z M465.6,742.8c-1.8,0-2.6-0.9-2.6-2.7c0-1.8,0.9-2.6,2.6-2.6c1.7,0,2.6,0.9,2.6,2.6
				C468.2,741.9,467.3,742.8,465.6,742.8z"/>
			<path class="st1" d="M476.9,773.2l2.3-4.4h9.6c1.4,0,2.5-0.4,3-1.1c0.6-0.7,0.9-2,0.9-3.7c0-4.8-2.2-8.5-6.5-10.9l2.3-3.8
				c5.9,3.4,8.9,8.3,8.9,14.8c0,6.1-2.6,9.1-7.8,9.1H476.9z"/>
			<path class="st1" d="M531,768.8v4.4h-6.7c-0.1,3.1-1.5,5.6-4,7.6c-2.1,1.7-4.5,2.5-7.2,2.5c-2.2,0-4.3-0.5-6.3-1.6v-4.1
				c1.9,1,3.8,1.5,5.7,1.5c1.9,0,3.6-0.6,5-1.8c1.4-1.2,2.1-2.6,2.2-4.3c-1.9-0.1-3.2-0.1-4.1-0.2c-3.9-0.2-6.8-1.5-8.8-3.9
				c-1.7-2-2.5-4.6-2.5-7.8c0-3.9,1-7,3.1-9.2c1.9-1.9,4.3-2.9,7.4-2.9c3.2,0,5.7,1,7.4,2.9c1.5,1.7,2.2,3.9,2.2,6.6v10.2H531z
				 M519.7,758.9c0-3.7-1.6-5.5-4.9-5.5c-1.9,0-3.3,0.7-4.4,2c-1,1.3-1.6,3.2-1.6,5.6c0,4.7,2.3,7.2,6.9,7.5
				c0.9,0.1,2.2,0.2,3.9,0.3V758.9z"/>
			<path class="st1" d="M562.9,768.8h3.5v4.4h-3.6c-2.9,0-5.2-0.3-7-1c-1.8-0.7-3.4-1.8-4.9-3.5c-4.5,3-9.8,4.5-15.8,4.5h-7.3v-4.4
				h7.4c7.3,0,13-2.4,17.3-7.2c-3-5.5-6.6-8.2-10.9-8.2c-2.9,0-5.9,1.5-9,4.6v-4.3c3-3.1,6.2-4.6,9.6-4.6c2.8,0,5.4,1,8,3
				c2.6,2,4.9,4.8,6.8,8.5v2.4c-1.1,1.4-2.2,2.5-3.2,3.4C555.8,768,558.8,768.8,562.9,768.8z M545.3,778.6c1.7,0,2.6,0.9,2.6,2.6
				c0,1.8-0.9,2.7-2.6,2.7c-1.8,0-2.6-0.9-2.6-2.7C542.7,779.5,543.5,778.6,545.3,778.6z"/>
			<path class="st1" d="M563.2,773.2v-4.4h2.9c3.7,0,5.6-2,5.6-5.9v-22l4.7-2.5V763c0,3.2-1,5.7-2.9,7.6c-1.8,1.7-4.1,2.6-7.1,2.6
				H563.2z"/>
			<path class="st1" d="M586,773.2V741l4.6-2.5v34.7H586z"/>
			<path class="st1" d="M621.9,773.2c-2.9,0-5.2-1-6.8-2.9c-1.4-1.7-2.2-3.9-2.2-6.6v-6.5l4.6-2.5v8.6c0,3.7,1.7,5.6,5.2,5.6h17.9
				c3.5,0,5.2-1.9,5.2-5.6v-10.9l4.6-2.5v13.8c0,3.1-1,5.5-2.9,7.3c-1.7,1.5-3.9,2.3-6.5,2.3H621.9z M627.3,748.2
				c-1.8,0-2.6-0.9-2.6-2.7c0-1.8,0.9-2.6,2.6-2.6c1.7,0,2.6,0.9,2.6,2.6C629.9,747.3,629,748.2,627.3,748.2z M634.1,748.2
				c-1.8,0-2.6-0.9-2.6-2.7c0-1.8,0.9-2.6,2.6-2.6c1.7,0,2.6,0.9,2.6,2.6C636.7,747.3,635.9,748.2,634.1,748.2z"/>
			<path class="st1" d="M668.4,773.2c-3.1,0-5.5-1-7.2-3c-1.4-1.7-2.2-3.9-2.2-6.6V741l4.6-2.5v25c0,3.6,1.8,5.4,5.3,5.4h3.6v4.4
				H668.4z"/>
			<path class="st1" d="M678.1,758.6c0-3.1,0.9-5.5,2.8-7.3c1.7-1.5,3.8-2.2,6.5-2.2c3.4,0,6,1.3,7.9,3.8c1.6,2.1,2.4,4.9,2.4,8.3
				c0,3.9-1,6.9-3,9.1c-1.8,1.9-4.1,2.9-6.9,2.9c-3.2,0-5.7-0.9-7.4-2.7c-1.7,1.8-4,2.7-6.9,2.7h-4.1v-4.4h3.6
				c3.5,0,5.3-1.8,5.3-5.4V758.6z M682.8,763.8c0,3.3,1.6,5,4.9,5c1.7,0,3-0.7,4-2c1-1.4,1.4-3.3,1.4-5.7c0-2.4-0.5-4.3-1.5-5.6
				c-1-1.3-2.4-2-4.1-2c-3.1,0-4.6,1.8-4.6,5.4V763.8z"/>
			<path class="st1" d="M702.2,773.2l2.3-4.4h9.6c1.4,0,2.5-0.4,3-1.1c0.6-0.7,0.9-2,0.9-3.7c0-4.8-2.2-8.4-6.6-10.8l2.4-4
				c5.6,3.3,8.6,7.9,8.8,13.7c0.1,2.1,0.5,3.6,1.4,4.5c0.9,0.9,2.3,1.4,4.2,1.4h3.2v4.4h-3.6c-3,0-5.3-1-7-2.9
				c-1.2,1.9-3.2,2.9-6,2.9H702.2z"/>
			<path class="st1" d="M763.3,768.8h3.5v4.4h-3.6c-2.9,0-5.2-0.3-7-1c-1.8-0.7-3.4-1.8-4.9-3.5c-4.5,3-9.8,4.5-15.8,4.5h-7.3v-4.4
				h7.4c7.3,0,13-2.4,17.3-7.2c-3-5.5-6.6-8.2-10.9-8.2c-2.9,0-5.9,1.5-9,4.6v-4.3c3-3.1,6.2-4.6,9.6-4.6c2.8,0,5.4,1,8,3
				c2.6,2,4.9,4.8,6.8,8.5v2.4c-1.1,1.4-2.2,2.5-3.2,3.4C756.1,768,759.2,768.8,763.3,768.8z M744.5,743.3c-1.8,0-2.6-0.9-2.6-2.7
				c0-1.8,0.9-2.6,2.6-2.6c1.7,0,2.6,0.9,2.6,2.6C747,742.4,746.2,743.3,744.5,743.3z"/>
			<path class="st1" d="M763.5,773.2v-4.4h2.9c3.7,0,5.6-2,5.6-5.9v-22l4.7-2.5V763c0,3.2-1,5.7-2.9,7.6c-1.8,1.7-4.1,2.6-7.1,2.6
				H763.5z"/>
		</g>
	</g>
</g>
</svg>
