<?xml version="1.0" encoding="utf-8"?>
<!-- Generator: Adobe Illustrator 27.3.1, SVG Export Plug-In . SVG Version: 6.00 Build 0)  -->
<svg version="1.1" id="Layer_1" xmlns="http://www.w3.org/2000/svg" xmlns:xlink="http://www.w3.org/1999/xlink" x="0px" y="0px"
	 viewBox="0 0 1000 1000" style="enable-background:new 0 0 1000 1000;" xml:space="preserve">
<style type="text/css">
	.st0{fill:#002136;}
	.st1{fill:#EF8626;}
</style>
<g>
	<path class="st0" d="M672,376c0-19.6-3.3-38.9-9.8-57.2c-2.5-7-10.1-10.6-17-8.1c-7,2.5-10.6,10.1-8.1,17
		c5.5,15.5,8.2,31.8,8.2,48.4c0,80.1-65.2,145.3-145.3,145.3c-80.1,0-145.3-65.2-145.3-145.3c0-80.1,65.2-145.3,145.3-145.3
		c15.9,0,31.4,2.5,46.3,7.5c7,2.3,14.6-1.4,16.9-8.4c2.3-7-1.4-14.6-8.4-16.9c-17.6-5.9-36.1-8.9-54.8-8.9
		c-45.9,0-89.1,17.9-121.6,50.4C345.9,286.9,328,330.1,328,376s17.9,89.1,50.4,121.6c11.3,11.3,23.9,20.9,37.5,28.5l-26,46.1h30.6
		l19.6-34.8c18.9,7,39,10.6,59.8,10.6c20.4,0,40.2-3.5,58.8-10.3l19.4,34.4h30.6l-25.7-45.5c13.9-7.7,26.9-17.4,38.5-29
		C654.1,465.1,672,421.9,672,376z"/>
	<path class="st0" d="M536.8,275.6c1.6-7.2-2.8-14.3-10-16c-9.2-2.1-18.8-3.1-28.3-3c-65.8,0.9-118.7,55.2-117.8,121
		s55.2,118.7,121,117.8s118.7-55.2,117.8-121c-0.1-9-1.2-17.9-3.3-26.6c-1.7-7.2-8.9-11.6-16.1-9.8c-7.2,1.7-11.6,9-9.8,16.1
		c1.6,6.7,2.5,13.7,2.6,20.7c0.7,51.1-40.3,93.2-91.4,93.9s-93.2-40.3-93.9-91.4s40.3-93.2,91.4-93.9c7.4-0.1,14.8,0.7,22,2.3
		C527.9,287.3,535.1,282.8,536.8,275.6z"/>
	<path class="st0" d="M491.2,344c7.1-1.9,11.3-9.3,9.3-16.4c-1.9-7.1-9.3-11.3-16.4-9.3c-12.2,3.4-22.9,10.4-30.9,20.3
		c-8.1,10.1-12.7,22.4-13.1,35.4c-1.1,33,24.8,60.8,57.8,61.9c28.3,1,53.7-18.3,60.3-45.8c1.7-7.2-2.7-14.4-9.9-16.1
		c-7.2-1.7-14.4,2.7-16.1,9.9c-3.7,15.2-17.7,25.9-33.4,25.4c-18.3-0.6-32.7-16-32-34.3C467.3,360.3,477.2,347.9,491.2,344z"/>
</g>
<path class="st1" d="M658.1,264.7c-2-4.9-6.9-8.2-12.2-8.2l-26.5,0v-26.4c0-5.3-3.2-10.2-8.2-12.2c-5-2.1-10.6-0.9-14.4,2.9
	l-26.5,26.5c-2.5,2.5-3.8,5.8-3.8,9.4v33.8l-71,71c-0.2,0.2-0.4,0.5-0.7,0.7l-4.5,4.5c-5.2,5.2-5.2,13.7,0,18.9l0,0
	c5.2,5.2,13.7,5.2,18.9,0l12.1-12.1c0.6-0.4,1.1-0.8,1.6-1.3l62.7-62.7h33.7c3.6,0,6.9-1.5,9.4-3.8l26.5-26.5
	C659,275.3,660.1,269.6,658.1,264.7z"/>
<g>
	<g>
		<path class="st0" d="M240,689.7c-5.2,0-9.3-1.8-12.3-5.3c-2.7-3.1-4-7.1-4-11.9v-9.4l11.6-6.1v14.8c0,2.5,0.5,4.2,1.5,5.2
			s2.7,1.5,5,1.5H272c2.3,0,4-0.5,5-1.6c1-1,1.5-2.8,1.5-5.2v-17l11.7-6.1v23.9c0,5.6-1.8,10-5.3,13.1c-3.1,2.7-7,4.1-11.8,4.1H240z
			 M255.8,710.3c-1.9,0-3.3-0.6-4.4-1.7s-1.7-2.6-1.7-4.5c0-1.8,0.6-3.2,1.7-4.3c1.1-1.1,2.6-1.7,4.4-1.7c1.8,0,3.3,0.5,4.4,1.6
			c1.1,1.1,1.6,2.5,1.6,4.4C261.9,708.3,259.9,710.3,255.8,710.3z"/>
		<path class="st0" d="M306.8,689.7v-53.5l11.7-6.2v59.7H306.8z"/>
		<path class="st0" d="M379.1,678.5v11.2h-11.4c-0.4,5.5-2.9,10-7.4,13.3c-3.7,2.7-8,4.1-13,4.1c-3.9,0-7.7-1-11.4-3.1v-10.1
			c3.3,1.9,6.7,2.9,10,2.9c2.6,0,4.9-0.7,6.9-2.1c2-1.4,3.1-3.1,3.3-5.1c-0.5-0.1-1.3-0.1-2.3-0.2c-1-0.1-1.9-0.2-2.4-0.3
			c-6.4-0.7-11.3-3.2-14.7-7.5c-2.9-3.6-4.3-8-4.3-13.2c0-6.8,1.9-12.1,5.6-16.1c3.3-3.5,7.6-5.2,13-5.2c5.5,0,9.8,1.8,12.9,5.3
			c2.7,3,4,7,4,11.8v14.3H379.1z M356.1,664c0-4.1-1.8-6.1-5.3-6.1c-4.7,0-7,3.4-7,10.1c0,6,2.7,9.3,8.1,10c0.9,0.2,2.3,0.3,4.2,0.5
			V664z"/>
		<path class="st0" d="M468.8,678.5h8.3v11.2h-9.4c-4.5,0-8.2-1.2-11.2-3.6c-3,2.4-6.7,3.6-11.2,3.6h-40c-4.5,0-8.2-1.2-11.2-3.6
			c-3,2.4-6.7,3.6-11.2,3.6h-9.4v-11.2h8.3c2.3,0,4-0.5,5-1.5c1-1,1.5-2.7,1.5-5.1v-12.2l11.7-6.1v18.3c0,3.9,1.6,6.1,4.7,6.6
			c3-9,7.3-16.3,13-21.9c6.3-6.3,13.5-9.4,21.6-9.4c7.3,0,13.1,2.5,17.5,7.6c3.7,4.3,5.6,9.5,5.6,15.8v1.9
			C462.3,676.5,464.5,678.5,468.8,678.5z M444.8,678.5c2.2,0,3.7-0.5,4.6-1.4c0.8-1,1.2-2.7,1.2-5.3v-1.3c0-3.7-1-6.7-3.1-9.1
			c-2.1-2.3-4.8-3.5-8.1-3.5c-4.8,0-9.3,1.8-13.5,5.5c-4.2,3.7-7.4,8.7-9.9,15.1H444.8z"/>
		<path class="st0" d="M471.6,689.7v-11.2h5.8c2.8,0,4.9-0.6,6.1-1.9c1.2-1.2,1.8-3.3,1.8-6.3v-34.1l11.6-6.2v40.4
			c0,6-1.8,10.8-5.5,14.3c-3.3,3.3-7.8,4.9-13.3,4.9H471.6z"/>
		<path class="st0" d="M513.5,689.7v-53.5l11.7-6.2v59.7H513.5z"/>
		<path class="st0" d="M600.3,678.5h8.3v11.2h-9.4c-5.7,0-10.2-1.9-13.3-5.7c-2.7,2-5.9,3.1-9.7,3.1c-5.7,0-10.2-2.1-13.6-6.4
			c-2.8-3.5-4.2-7.7-4.2-12.7c0-6.1,2-11.1,5.9-14.9c3.3-3.2,7.2-4.8,11.6-4.8c2.3,0,4.4,0.4,6.3,1.3v-2.4l11.6-6.1v30.8
			c0,2.4,0.5,4.1,1.5,5.1C596.3,678,598,678.5,600.3,678.5z M570.4,637.5c-1.9,0-3.3-0.6-4.4-1.7s-1.7-2.6-1.7-4.5c0-4,2-6,6.1-6
			c1.8,0,3.3,0.5,4.4,1.6c1.1,1.1,1.6,2.5,1.6,4.4C576.5,635.4,574.5,637.5,570.4,637.5z M582.2,661.2c-1.6-1.4-3.4-2-5.5-2
			s-3.7,0.8-4.9,2.5c-1.3,1.7-1.9,3.9-1.9,6.6c0,2.7,0.6,4.9,1.9,6.5c1.2,1.6,2.9,2.4,5.1,2.4c2.3,0,4.2-0.8,5.5-2.4
			c-0.1-0.5-0.1-1.3-0.1-2.3V661.2z M584.7,637.5c-1.9,0-3.3-0.6-4.4-1.7s-1.7-2.6-1.7-4.5c0-4,2-6,6.1-6c1.8,0,3.3,0.5,4.4,1.6
			c1.1,1.1,1.6,2.5,1.6,4.4C590.7,635.4,588.7,637.5,584.7,637.5z"/>
		<path class="st0" d="M624.8,648.9c4.6,0.4,8.7,1.8,12.2,4.2c6.3,4.3,9.4,10.4,9.4,18.4v1.2c0,5.5-1.7,9.9-5.2,13
			c-3,2.7-6.9,4-11.7,4h-26.5v-11.2h25.3c4.3,0,6.5-2.1,6.5-6.4v-0.6c0-3.3-1.3-6-3.8-8.1c-2.6-2.1-5.9-3.1-10-3.1
			c-3.1,0-6.4,0.6-9.8,1.9V651l18.8-20.9h11.7L624.8,648.9z"/>
		<path class="st0" d="M683.6,678.5h8.3v11.2h-9.4c-2.1,0-4-0.3-5.8-0.8c-0.8,5.9-3.2,10.6-7.1,14.1c-3.6,3.1-7.9,4.6-12.9,4.6
			c-3.9,0-7.7-1-11.4-3v-10.2c3.2,1.8,6.4,2.7,9.4,2.7c3.4,0,6-1.1,7.9-3.3c1.9-2.2,2.8-5.2,2.8-9.1v-30l7.6-4l4-2.1v0.1l0.1-0.1
			v23.2c0,2.4,0.5,4.1,1.5,5.1C679.6,678,681.2,678.5,683.6,678.5z"/>
		<path class="st0" d="M686.4,689.7v-11.2h9.8c2.3,0,4-0.5,5-1.5s1.5-2.7,1.5-5.1v-12.2l11.7-6.1v18.3c0,2.4,0.5,4.1,1.5,5.1
			c1,1,2.7,1.5,5,1.5h6.3c2.3,0,4-0.5,5-1.5c1-1,1.5-2.7,1.5-5.1v-14.6l11.7-6.2v20.8c0,2.4,0.5,4.1,1.5,5.1s2.7,1.5,5,1.5h6.3
			c2.3,0,4-0.5,5-1.5c1-1,1.5-2.7,1.5-5.1v-17.1l11.7-6.1v23.8c0,5.5-1.7,9.8-5,13c-2.9,2.8-6.7,4.2-11.5,4.3h-9.2
			c-4.6,0-8.3-1.4-11.2-4.1c-2.7,2.7-6.2,4-10.5,4.1h-9.2c-4.6,0-8.3-1.4-11.2-4.1c-2.9,2.7-6.6,4.1-11.2,4.1H686.4z M731.9,640.5
			c-1.9,0-3.3-0.6-4.4-1.7c-1.1-1.1-1.7-2.6-1.7-4.5c0-1.8,0.6-3.2,1.7-4.3c1.1-1.1,2.6-1.7,4.4-1.7c1.8,0,3.3,0.5,4.4,1.6
			c1.1,1.1,1.6,2.5,1.6,4.4C737.9,638.4,735.9,640.5,731.9,640.5z M738.9,626.9c-3.7,0-5.6-1.9-5.6-5.6c0-3.6,1.9-5.5,5.6-5.5
			c3.6,0,5.5,1.8,5.5,5.5C744.4,625,742.5,626.9,738.9,626.9z M746.1,640.5c-1.9,0-3.3-0.6-4.4-1.7c-1.1-1.1-1.7-2.6-1.7-4.5
			c0-1.8,0.6-3.2,1.7-4.3c1.1-1.1,2.6-1.7,4.4-1.7c1.8,0,3.3,0.5,4.4,1.6c1.1,1.1,1.6,2.5,1.6,4.4
			C752.1,638.4,750.1,640.5,746.1,640.5z"/>
	</g>
	<g>
		<path class="st0" d="M237.7,773c-3.3,0-5.8-1.1-7.6-3.3c-1.6-1.9-2.4-4.3-2.4-7.3c0-3.2,0.9-6,2.7-8.3c1.8-2.4,4.3-4.1,7.6-5.2
			c3.5,1.2,6.1,3.1,7.9,5.6c1.6,2.3,2.4,4.9,2.4,7.9c0,3.4-1,6.1-3,8c-1.8,1.7-4.1,2.5-6.9,2.5H237.7z M234.2,742.6
			c-1.8,0-2.6-0.9-2.6-2.7c0-1.8,0.9-2.6,2.6-2.6c1.7,0,2.6,0.9,2.6,2.6C236.8,741.7,235.9,742.6,234.2,742.6z M237.5,768.7h0.8
			c1.6,0,2.9-0.6,3.8-1.7c1-1.1,1.4-2.6,1.4-4.5c0-4.3-1.9-7.4-5.7-9.3c-3.8,1.9-5.7,4.9-5.7,9.2c0,1.9,0.5,3.4,1.4,4.5
			C234.6,768.1,235.9,768.7,237.5,768.7z M241.1,742.6c-1.8,0-2.6-0.9-2.6-2.7c0-1.8,0.9-2.6,2.6-2.6c1.7,0,2.6,0.9,2.6,2.6
			C243.7,741.7,242.8,742.6,241.1,742.6z"/>
		<path class="st0" d="M269.8,768.7h3.6v4.4h-4.1c-1.8,0-3.4-0.4-4.7-1.1c-0.3,3.6-1.6,6.4-3.7,8.5c-2,1.9-4.5,2.9-7.4,2.9
			c-2.2,0-4.3-0.5-6.3-1.6v-4c1.8,1,3.7,1.5,5.5,1.5c2.3,0,4.1-0.8,5.4-2.3c1.3-1.5,1.9-3.7,1.9-6.4v-18.4l4.6-2.5v0.1l0.1-0.1v14.7
			C264.9,767.2,266.7,768.7,269.8,768.7z"/>
		<path class="st0" d="M270.1,773v-4.4h3.6c3.5,0,5.3-1.8,5.3-5.4v-11.1l4.6-2.5v13.8c0,3.1-0.9,5.5-2.7,7.2
			c-1.7,1.6-3.9,2.4-6.6,2.4H270.1z M273,783.8c-1.8,0-2.6-0.9-2.6-2.7c0-1.8,0.9-2.6,2.6-2.6c1.7,0,2.6,0.9,2.6,2.6
			C275.6,782.9,274.7,783.8,273,783.8z M279.8,783.8c-1.8,0-2.6-0.9-2.6-2.7c0-1.8,0.9-2.6,2.6-2.6c1.7,0,2.6,0.9,2.6,2.6
			C282.4,782.9,281.6,783.8,279.8,783.8z"/>
		<path class="st0" d="M302.7,773c-3.1,0-5.5-1-7.2-3c-1.4-1.7-2.2-3.9-2.2-6.6v-22.7l4.6-2.5v25c0,3.6,1.8,5.4,5.3,5.4h3.6v4.4
			H302.7z"/>
		<path class="st0" d="M330.1,768.7h14.2v4.4h-14.6c-1.9,0-3.9-0.4-5.8-1.1c-1.9,0.8-3.8,1.1-5.8,1.1h-14.6v-4.4h14.2h0.8
			c-2.6-2.1-5.2-5.2-8-9.3V757c1.7-2.5,3.8-4.4,6.2-5.9c2.4-1.4,4.8-2.2,7.2-2.2c2.4,0,4.8,0.7,7.2,2.2c2.4,1.5,4.5,3.4,6.2,6v2.3
			c-2.7,4.1-5.4,7.2-8,9.3H330.1z M314.8,758.2c3.3,4.5,6.3,7.5,9.1,8.9c2.8-1.5,5.8-4.5,9.1-9c-2.7-3.3-5.7-4.9-9.2-5
			C320.5,753.2,317.5,754.9,314.8,758.2z"/>
		<path class="st0" d="M375.8,768.7h3.6v4.4h-4.1c-3,0-5.3-1-7.1-2.9c-1.8,2.6-4.5,3.9-8,3.9c-3.5,0-6.2-1.3-8-3.9
			c-1.7,1.9-4,2.8-7.1,2.8h-4.1v-4.4h3.6c3.5,0,5.3-1.8,5.3-5.4v-1.8c0-4.2,1-7.4,3.1-9.6c1.8-2,4.2-3,7.2-3c3.4,0,6.1,1.3,8,3.8
			c1.6,2.2,2.4,5.1,2.4,8.7v1.8C370.6,766.9,372.3,768.7,375.8,768.7z M360.2,769.8c1.8,0,3.2-0.7,4.2-2.2c1-1.5,1.5-3.5,1.5-6.1
			c0-5.5-1.9-8.2-5.7-8.2c-3.8,0-5.7,2.7-5.7,8.2C354.6,767,356.5,769.8,360.2,769.8z"/>
		<path class="st0" d="M376.2,773v-4.4h2.9c3.7,0,5.6-2,5.6-5.9v-22l4.7-2.5v24.6c0,3.2-1,5.7-2.9,7.6c-1.8,1.7-4.1,2.6-7.1,2.6
			H376.2z"/>
		<path class="st0" d="M399,773v-32.3l4.6-2.5V773H399z"/>
		<path class="st0" d="M426.6,771.3c-1.4,0.5-3,0.8-5,0.8c-3.2,0-5.7-1.2-7.5-3.6c-1.5-2-2.3-4.6-2.3-7.7c0-3.8,1-6.8,3.1-8.9
			c1.8-1.9,4.2-2.9,7.2-2.9c3.1,0,5.4,1,7.1,2.9c1.5,1.7,2.2,3.9,2.2,6.6v11.7c0,4.1-1.1,7.3-3.2,9.6c-2,2.2-4.7,3.3-8,3.3
			c-2.2,0-4.3-0.5-6.3-1.6v-4.1c1.9,1,3.8,1.5,5.7,1.5c2.1,0,3.8-0.7,5.1-2C425.7,775.7,426.4,773.8,426.6,771.3z M426.6,758.7
			c0-3.6-1.5-5.4-4.6-5.4c-1.8,0-3.2,0.7-4.2,2c-1,1.3-1.5,3.1-1.5,5.4c0,2.3,0.5,4.1,1.5,5.4c1,1.3,2.3,2,4,2c2.4,0,4-0.7,4.8-2
			V758.7z"/>
		<path class="st0" d="M462,773c-3.3,0-5.8-1.1-7.6-3.3c-1.6-1.9-2.4-4.3-2.4-7.3c0-3.2,0.9-6,2.7-8.3c1.8-2.4,4.3-4.1,7.6-5.2
			c3.5,1.2,6.1,3.1,7.9,5.6c1.6,2.3,2.4,4.9,2.4,7.9c0,3.4-1,6.1-3,8c-1.8,1.7-4.1,2.5-6.9,2.5H462z M458.5,742.6
			c-1.8,0-2.6-0.9-2.6-2.7c0-1.8,0.9-2.6,2.6-2.6c1.7,0,2.6,0.9,2.6,2.6C461.1,741.7,460.3,742.6,458.5,742.6z M461.9,768.7h0.8
			c1.6,0,2.9-0.6,3.8-1.7c1-1.1,1.4-2.6,1.4-4.5c0-4.3-1.9-7.4-5.7-9.3c-3.8,1.9-5.7,4.9-5.7,9.2c0,1.9,0.5,3.4,1.4,4.5
			C459,768.1,460.3,768.7,461.9,768.7z M465.4,742.6c-1.8,0-2.6-0.9-2.6-2.7c0-1.8,0.9-2.6,2.6-2.6c1.7,0,2.6,0.9,2.6,2.6
			C468,741.7,467.2,742.6,465.4,742.6z"/>
		<path class="st0" d="M476.7,773l2.3-4.4h9.6c1.4,0,2.5-0.4,3-1.1c0.6-0.7,0.9-2,0.9-3.7c0-4.8-2.2-8.5-6.5-10.9l2.3-3.8
			c5.9,3.4,8.9,8.3,8.9,14.8c0,6.1-2.6,9.1-7.8,9.1H476.7z"/>
		<path class="st0" d="M530.9,768.7v4.4h-6.7c-0.1,3.1-1.5,5.6-4,7.6c-2.1,1.7-4.5,2.5-7.2,2.5c-2.2,0-4.3-0.5-6.3-1.6v-4.1
			c1.9,1,3.8,1.5,5.7,1.5c1.9,0,3.6-0.6,5-1.8c1.4-1.2,2.1-2.6,2.2-4.3c-1.9-0.1-3.2-0.1-4.1-0.2c-3.9-0.2-6.8-1.5-8.8-3.9
			c-1.7-2-2.5-4.6-2.5-7.8c0-3.9,1-7,3.1-9.2c1.9-1.9,4.3-2.9,7.4-2.9c3.2,0,5.7,1,7.4,2.9c1.5,1.7,2.2,3.9,2.2,6.6v10.2H530.9z
			 M519.5,758.8c0-3.7-1.6-5.5-4.9-5.5c-1.9,0-3.3,0.7-4.4,2c-1,1.3-1.6,3.2-1.6,5.6c0,4.7,2.3,7.2,6.9,7.5c0.9,0.1,2.2,0.2,3.9,0.3
			V758.8z"/>
		<path class="st0" d="M562.7,768.7h3.5v4.4h-3.6c-2.9,0-5.2-0.3-7-1c-1.8-0.7-3.4-1.8-4.9-3.5c-4.5,3-9.8,4.5-15.8,4.5h-7.3v-4.4
			h7.4c7.3,0,13-2.4,17.3-7.2c-3-5.5-6.6-8.2-10.9-8.2c-2.9,0-5.9,1.5-9,4.6v-4.3c3-3.1,6.2-4.6,9.6-4.6c2.8,0,5.4,1,8,3
			c2.6,2,4.9,4.8,6.8,8.5v2.4c-1.1,1.4-2.2,2.5-3.2,3.4C555.6,767.9,558.6,768.7,562.7,768.7z M545.1,778.4c1.7,0,2.6,0.9,2.6,2.6
			c0,1.8-0.9,2.7-2.6,2.7c-1.8,0-2.6-0.9-2.6-2.7C542.5,779.3,543.4,778.4,545.1,778.4z"/>
		<path class="st0" d="M563,773v-4.4h2.9c3.7,0,5.6-2,5.6-5.9v-22l4.7-2.5v24.6c0,3.2-1,5.7-2.9,7.6c-1.8,1.7-4.1,2.6-7.1,2.6H563z"
			/>
		<path class="st0" d="M585.8,773v-32.3l4.6-2.5V773H585.8z"/>
		<path class="st0" d="M621.7,773c-2.9,0-5.2-1-6.8-2.9c-1.4-1.7-2.2-3.9-2.2-6.6V757l4.6-2.5v8.6c0,3.7,1.7,5.6,5.2,5.6h17.9
			c3.5,0,5.2-1.9,5.2-5.6v-10.9l4.6-2.5v13.8c0,3.1-1,5.5-2.9,7.3c-1.7,1.5-3.9,2.3-6.5,2.3H621.7z M627.1,748
			c-1.8,0-2.6-0.9-2.6-2.7c0-1.8,0.9-2.6,2.6-2.6c1.7,0,2.6,0.9,2.6,2.6C629.7,747.1,628.9,748,627.1,748z M634,748
			c-1.8,0-2.6-0.9-2.6-2.7c0-1.8,0.9-2.6,2.6-2.6c1.7,0,2.6,0.9,2.6,2.6C636.6,747.1,635.7,748,634,748z"/>
		<path class="st0" d="M668.3,773c-3.1,0-5.5-1-7.2-3c-1.4-1.7-2.2-3.9-2.2-6.6v-22.7l4.6-2.5v25c0,3.6,1.8,5.4,5.3,5.4h3.6v4.4
			H668.3z"/>
		<path class="st0" d="M678,758.5c0-3.1,0.9-5.5,2.8-7.3c1.7-1.5,3.8-2.2,6.5-2.2c3.4,0,6,1.3,7.9,3.8c1.6,2.1,2.4,4.9,2.4,8.3
			c0,3.9-1,6.9-3,9.1c-1.8,1.9-4.1,2.9-6.9,2.9c-3.2,0-5.7-0.9-7.4-2.7c-1.7,1.8-4,2.7-6.9,2.7h-4.1v-4.4h3.6c3.5,0,5.3-1.8,5.3-5.4
			V758.5z M682.6,763.7c0,3.3,1.6,5,4.9,5c1.7,0,3-0.7,4-2c1-1.4,1.4-3.3,1.4-5.7c0-2.4-0.5-4.3-1.5-5.6c-1-1.3-2.4-2-4.1-2
			c-3.1,0-4.6,1.8-4.6,5.4V763.7z"/>
		<path class="st0" d="M702,773l2.3-4.4h9.6c1.4,0,2.5-0.4,3-1.1c0.6-0.7,0.9-2,0.9-3.7c0-4.8-2.2-8.4-6.6-10.8l2.4-4
			c5.6,3.3,8.6,7.9,8.8,13.7c0.1,2.1,0.5,3.6,1.4,4.5c0.9,0.9,2.3,1.4,4.2,1.4h3.2v4.4h-3.6c-3,0-5.3-1-7-2.9
			c-1.2,1.9-3.2,2.9-6,2.9H702z"/>
		<path class="st0" d="M763.1,768.7h3.5v4.4H763c-2.9,0-5.2-0.3-7-1c-1.8-0.7-3.4-1.8-4.9-3.5c-4.5,3-9.8,4.5-15.8,4.5H728v-4.4h7.4
			c7.3,0,13-2.4,17.3-7.2c-3-5.5-6.6-8.2-10.9-8.2c-2.9,0-5.9,1.5-9,4.6v-4.3c3-3.1,6.2-4.6,9.6-4.6c2.8,0,5.4,1,8,3
			c2.6,2,4.9,4.8,6.8,8.5v2.4c-1.1,1.4-2.2,2.5-3.2,3.4C756,767.9,759,768.7,763.1,768.7z M744.3,743.2c-1.8,0-2.6-0.9-2.6-2.7
			c0-1.8,0.9-2.6,2.6-2.6c1.7,0,2.6,0.9,2.6,2.6C746.9,742.3,746,743.2,744.3,743.2z"/>
		<path class="st0" d="M763.4,773v-4.4h2.9c3.7,0,5.6-2,5.6-5.9v-22l4.7-2.5v24.6c0,3.2-1,5.7-2.9,7.6c-1.8,1.7-4.1,2.6-7.1,2.6
			H763.4z"/>
	</g>
</g>
</svg>
