<svg xmlns="http://www.w3.org/2000/svg" xmlns:xlink="http://www.w3.org/1999/xlink" width="191.372" height="60.06" viewBox="0 0 191.372 60.06">
  <defs>
    <clipPath id="clip-path">
      <rect id="Rectangle_137" data-name="Rectangle 137" width="191.372" height="60.06" fill="none"/>
    </clipPath>
  </defs>
  <g id="oilLibya-logo-color" transform="translate(-40.76 81.05)">
    <g id="Group_174" data-name="Group 174" transform="translate(40.76 -81.05)">
      <g id="Group_173" data-name="Group 173" clip-path="url(#clip-path)">
        <g id="Group_172" data-name="Group 172" transform="translate(0 0)">
          <g id="Group_171" data-name="Group 171" clip-path="url(#clip-path)">
            <path id="Path_296" data-name="Path 296" d="M81.595-24.426c.193.016.394.03.779.036l5.705.058c11.334.232,22.675.659,34-.184a205.577,205.577,0,0,0,58.882-10.259c4.878-1.795,9.771-3.887,13.835-7.2,3.769-2.943,5.842-8.419,4.035-12.991-1.618-3.419-4.817-5.783-7.976-7.7-9.825-5.755-20.956-8.936-32.133-10.749A290.156,290.156,0,0,0,99.583-77.97c-12.3.232-24.645.938-36.766,3.167-3.9.509-7.677,1.692-11.592,2.094.647-1.571,2.4-1.843,3.826-2.311,17.34-4.851,35.468-5.816,53.386-5.945A317.658,317.658,0,0,1,161.109-77.6c12.787,2.031,25.689,4.831,37.253,10.858,5.145,2.629,10.432,6.292,12.415,11.986a11,11,0,0,1-1.271,9.777c-2.977,4.77-8.066,7.6-12.9,10.152-13.194,6.794-27.94,9.763-42.514,11.843a320.681,320.681,0,0,1-71.155.033,13.657,13.657,0,0,1-1.907-.334Z" transform="translate(-34.949 81.05)" fill="#0160a9"/>
            <path id="Path_297" data-name="Path 297" d="M129.962-79.218a2.239,2.239,0,0,1,2.691-.795c12.48,2.411,25.106,5.285,36.446,11.239a33.951,33.951,0,0,1,10.267,8.1c3.3,3.831,4.4,9.769,1.719,14.227-3.133,5.212-8.377,8.785-13.8,11.294a96.888,96.888,0,0,1-18.1,6.453c.176-.325.521-.985.7-1.31,3.948-1.876,8.153-3.372,11.6-6.164,3.893-3.131,8.256-6.618,9.172-11.843,1.434-5.408-.747-11.171-4.735-14.915-9.452-9.791-23.217-13.093-35.958-16.287" transform="translate(8.782 81.538)" fill="#0160a9"/>
            <path id="Path_298" data-name="Path 298" d="M50.554-72.458c5.184-1.013,10.777-1.079,15.744.924a10.969,10.969,0,0,1,6.631,9.051c.585,4.363.157,9.37-3.024,12.706-3.431,3.56-8.73,4.03-13.4,4.083-4.873-.109-10.56-1.011-13.529-5.326a17.739,17.739,0,0,1-1.128-14.753c1.406-3.661,4.966-5.965,8.7-6.685M54.76-68.2a6.821,6.821,0,0,0-5.966,5.985c-.571,3.86-.25,9.214,3.9,10.987,3.974,1.577,9.818,1.079,11.816-3.262a13.949,13.949,0,0,0-.246-10.342c-1.82-3.24-6.122-4.022-9.505-3.369" transform="translate(-40.76 85.438)" fill="#e31818"/>
            <path id="Path_299" data-name="Path 299" d="M63.775-72.725c2.209-.02,4.424-.02,6.632-.014,0,1.644-.006,3.29-.028,4.94-2.195-.014-4.4-.014-6.59-.014-.008-1.636-.008-3.276-.014-4.912" transform="translate(-27.978 85.664)" fill="#e31818"/>
            <path id="Path_300" data-name="Path 300" d="M70.42-72.7c2.33-.047,4.66-.047,6.991-.047.047,5.164-.062,10.334.047,15.506.075,1.7.095,3.9,1.848,4.817,2.943,1.583,6.436.712,9.628.9q.042,2.387.068,4.77c-5.265-.266-11.578,1.134-15.8-2.874-2.283-1.84-2.691-4.9-2.731-7.643-.062-5.137.033-10.281-.054-15.425" transform="translate(-24.287 85.664)" fill="#e31818"/>
            <path id="Path_301" data-name="Path 301" d="M84.744-72.718c2.263-.026,4.525-.026,6.782-.026.012,1.644.02,3.288.012,4.932H84.756c-.006-1.636-.006-3.274-.012-4.906" transform="translate(-16.332 85.664)" fill="#e31818"/>
            <path id="Path_302" data-name="Path 302" d="M91.493-72.722c2.229-.02,4.458-.014,6.687-.014-.02,2.318-.02,4.635-.02,6.951,4.606.238,9.993-.944,13.854,2.249,4.573,3.526,4.355,11.532-.462,14.731-2.44,1.761-5.565,2.039-8.48,2.067q-5.779-.023-11.558-.016c.014-8.656.068-17.312-.02-25.969M98.18-61.361c-.036,3.4-.02,6.8,0,10.2,3-.131,6.413.5,9.017-1.347a6.126,6.126,0,0,0-.054-7.446c-2.515-1.977-5.987-1.279-8.962-1.408" transform="translate(-12.583 85.668)" fill="#e31818"/>
            <path id="Path_303" data-name="Path 303" d="M63.781-68.38c2.207.014,4.416.014,6.631.014-.026,6.4.006,12.795-.026,19.194h-6.6c.006-6.4-.02-12.807-.006-19.208" transform="translate(-27.976 88.087)" fill="#e31818"/>
            <path id="Path_304" data-name="Path 304" d="M84.754-68.385c2.263.02,4.526.02,6.789.014-.014,6.4.006,12.8,0,19.2H84.754c0-6.408-.012-12.809,0-19.217" transform="translate(-16.329 88.084)" fill="#e31818"/>
            <path id="Path_305" data-name="Path 305" d="M108.107-68.269q3.311.021,6.631-.006c.04,3.744-.034,7.494.02,11.238.054,1.2.17,3.024,1.678,3.235a49.25,49.25,0,0,0,6.993.109q-.033-7.289,0-14.582,3.29.03,6.6,0c.008,6.012,0,12.026.02,18.033.008,1.894-.17,3.982-1.495,5.456-1.638,1.977-4.383,2.37-6.794,2.5-4.383.054-8.766.012-13.148,0,.012-1.414.02-2.82.026-4.234,4.145-.047,8.3.143,12.435-.081,1.386-.014,1.929-1.509,2.675-2.406-4.075-.182-8.317.314-12.208-1.148a5.77,5.77,0,0,1-3.385-5.483c-.1-4.206.008-8.426-.047-12.631" transform="translate(-3.356 88.146)" fill="#e31818"/>
            <path id="Path_306" data-name="Path 306" d="M125.532-68.15c4.579.026,9.16-.034,13.739.006,2.725.143,5.837.415,7.8,2.568a6.261,6.261,0,0,1,1.551,4.438c.061,3.948.006,7.9,0,11.851-5.822-.034-11.641.026-17.462-.028-2.3-.054-4.987-.611-6.32-2.683a7.061,7.061,0,0,1-.21-5.537c1.114-2.128,3.587-3.024,5.851-3.195,3.912-.285,7.841,0,11.76-.176-.557-1.115-.992-2.6-2.461-2.745-4.721-.645-9.519.048-14.261-.4.008-1.366.008-2.731.014-4.1m5.687,12.442a1.436,1.436,0,0,0,1.3,2.072c3.161.272,6.34.014,9.514.137-.016-1.149-.022-2.283-.034-3.425-2.725,0-5.456-.117-8.181.026-.924.123-2.2.163-2.6,1.19" transform="translate(5.561 88.21)" fill="#e31818"/>
          </g>
        </g>
      </g>
    </g>
  </g>
</svg>
